# xmcd CD database file
#
# Track frame offsets:
#	150
#	34755
#	60880
#	80540
#	99605
#	122240
#	146905
#	177715
#	213845
#	235442
#	267352
#
# Disc length: 3830 seconds
#
# Revision: 0
# Processed by: cddbd v1.4PL0 Copyright (c) Steve Scherf et al.
# Submitted via: CDex 1.51
#
DISCID=a10ef40b
DTITLE=啟彬與凱雅的二重奏 - 爵士台灣映象
DYEAR=2003
DGENRE=Jazz
TTITLE0=布袋魚市即景
TTITLE1=糖廠
TTITLE2=綠色隧道
TTITLE3=圓形的滋味
TTITLE4=230的阿公阿媽
TTITLE5=來去蜂炮城
TTITLE6=螞蟻的探戈
TTITLE7=拖吊鯊魚
TTITLE8=空中迴廊
TTITLE9=記憶中的日式宿舍
TTITLE10=歌仔戲
EXTD=YEAR: 2003
EXTT0=
EXTT1=
EXTT2=
EXTT3=
EXTT4=
EXTT5=
EXTT6=
EXTT7=
EXTT8=
EXTT9=
EXTT10=
PLAYORDER=
